# xmcd
#
# Track frame offsets:
#	150
#	24422
#	45990
#	69380
#
# Disc length: 1128 seconds
#
# Revision: 1
# Processed by: cddbd v1.5PL3 Copyright (c) Steve Scherf et al.
# Submitted via: CDex 1.50Beta5
#
DISCID=26046604
DTITLE=Northern Bright - パルプ・フレイヴァー
DYEAR=1900
DGENRE=Pop
TTITLE0=PULP FLAVOUR
TTITLE1=BETTER ALL THE TIME(Instrumental)
TTITLE2=COME TOGETHER
TTITLE3=PULP FLAVOUR(ELEVATOR SUITE remix)
EXTD=
EXTT0=
EXTT1=
EXTT2=
EXTT3=
PLAYORDER=
